<svg id="Layer_1" data-name="Layer 1" xmlns="http://www.w3.org/2000/svg" viewBox="0 0 91.53 27.93"><path d="M57.71,50c0,4.13,0,8.26,0,12.39a1.37,1.37,0,0,1-1.48,1.47c-.76,0-1.52,0-2.27,0-1.17,0-1.59-.42-1.59-1.6V37.68c0-1.15.49-1.64,1.63-1.64h2.21a1.36,1.36,0,0,1,1.48,1.48Z" transform="translate(-4.24 -36.04)" fill="#373836"/><path d="M49.34,49.22c-.14-.71-.3-.76-.85-.33s-1.18,1-1.76,1.53c-.76.68-.75.68-1.15-.25q-2.8-6.48-5.6-13A1.77,1.77,0,0,0,38.17,36c-1.71,0-3.44,0-5.15,0a1.83,1.83,0,0,0-1.9,1.22c-1.63,3.74-3.3,7.46-4.93,11.21-.2.46-.4.54-.87.41a22.31,22.31,0,0,0-4.36-1c-4.95-.42-9,1.1-11.9,5.3-.2.3-.55.65-.28,1s.64,0,1-.07a19.89,19.89,0,0,1,7.17-1.36,18.64,18.64,0,0,1,4.55.69,50.13,50.13,0,0,1,7.09,2.88,20.37,20.37,0,0,0,13.7,1.3,9.93,9.93,0,0,0,6-3.68A6,6,0,0,0,49.34,49.22Zm-9,3.88a18.47,18.47,0,0,1-9.45-1.49c-.3-.12-.42-.24-.27-.59q2.36-5.34,4.67-10.7l.16-.17c.73,1.73,1.43,3.4,2.14,5.07,1,2.42,2,4.84,3.09,7.25C40.88,52.89,40.85,53,40.36,53.1Z" transform="translate(-4.24 -36.04)" fill="#373836"/><path d="M68.33,45.41a8.92,8.92,0,0,0-9.25,9.1c0,5.45,3.81,9.38,9.14,9.4a9,9,0,0,0,9.28-9.17A9,9,0,0,0,68.33,45.41Zm0,13.31a3.89,3.89,0,0,1-4-4.06,4,4,0,1,1,8,0A3.92,3.92,0,0,1,68.28,58.72Z" transform="translate(-4.24 -36.04)" fill="#373836"/><path d="M78.87,54.67V46.75c0-.75.2-1,.94-1h3.37c.53,0,.89.13,1,.75s.65.77,1.2.33A6.33,6.33,0,0,1,92,45.92c2.17.83,3.14,2.62,3.56,4.79A12.14,12.14,0,0,1,95.76,53v9.58c0,.93-.12,1.05-1.07,1.05H91.62c-1,0-1.13-.09-1.13-1.1V54.32c0-.3,0-.61-.06-.91-.35-2.94-2.94-3.25-4.63-2.5a3,3,0,0,0-1.64,3c0,2.82,0,5.64,0,8.46,0,1.17,0,1.22-1.21,1.22H79.74c-.7,0-.87-.18-.87-.88Z" transform="translate(-4.24 -36.04)" fill="#373836"/><path d="M15.83,56.18a19.3,19.3,0,0,1,7.28,1.67c2.25.87,4.49,1.77,6.73,2.65.59.22,1.2.4,1.81.59.27.09.64.19.67.46s-.31.49-.59.62a9.57,9.57,0,0,1-2.58.75,16.91,16.91,0,0,1-7.65-1.05,29.74,29.74,0,0,0-6-1.58c-3.93-.37-7.47.47-10.36,3.35-.2.2-.42.45-.71.26s-.18-.4-.07-.7c1.36-3.73,4.39-5.42,7.91-6.5A12.86,12.86,0,0,1,15.83,56.18Z" transform="translate(-4.24 -36.04)" fill="#373836"/><path d="M48.23,63.78h-2c-1.07-.09-1.42-.85-1.88-2.29a1.59,1.59,0,0,1,.76-2c1.09-.64,2.2-1.24,3.3-1.86.21-.12.3-.08.39.14.68,1.65,1.38,3.29,2.06,5,.24.59,0,1-.7,1S48.88,63.78,48.23,63.78Z" transform="translate(-4.24 -36.04)" fill="#373836"/></svg>